<mxfile host="Electron" modified="2024-05-14T22:01:05.449Z" agent="Mozilla/5.0 (Windows NT 10.0; Win64; x64) AppleWebKit/537.36 (KHTML, like Gecko) draw.io/23.0.2 Chrome/120.0.6099.109 Electron/28.1.0 Safari/537.36" etag="pll25iiM4jDsXgVsEinx" version="23.0.2" type="device">
  <diagram name="Página-1" id="x9CmnGcBnZ_YHvCdk06k">
    <mxGraphModel dx="1931" dy="508" grid="1" gridSize="10" guides="1" tooltips="1" connect="1" arrows="1" fold="1" page="1" pageScale="1" pageWidth="827" pageHeight="1169" math="0" shadow="0">
      <root>
        <mxCell id="0" />
        <mxCell id="1" parent="0" />
        <mxCell id="I10mN_lkF9MRb2houSes-4" style="edgeStyle=orthogonalEdgeStyle;rounded=0;orthogonalLoop=1;jettySize=auto;html=1;" parent="1" source="I10mN_lkF9MRb2houSes-1" target="I10mN_lkF9MRb2houSes-5" edge="1">
          <mxGeometry relative="1" as="geometry">
            <mxPoint x="190" y="290" as="targetPoint" />
          </mxGeometry>
        </mxCell>
        <mxCell id="I10mN_lkF9MRb2houSes-1" value="" style="ellipse;whiteSpace=wrap;html=1;aspect=fixed;fillColor=#000000;" parent="1" vertex="1">
          <mxGeometry x="170" y="190" width="40" height="40" as="geometry" />
        </mxCell>
        <mxCell id="I10mN_lkF9MRb2houSes-2" value="Inicio Eliminar Servicio" style="text;html=1;strokeColor=none;fillColor=none;align=center;verticalAlign=middle;whiteSpace=wrap;rounded=0;" parent="1" vertex="1">
          <mxGeometry x="122.5" y="140" width="135" height="30" as="geometry" />
        </mxCell>
        <mxCell id="I10mN_lkF9MRb2houSes-7" style="edgeStyle=orthogonalEdgeStyle;rounded=0;orthogonalLoop=1;jettySize=auto;html=1;" parent="1" source="I10mN_lkF9MRb2houSes-5" target="I10mN_lkF9MRb2houSes-6" edge="1">
          <mxGeometry relative="1" as="geometry" />
        </mxCell>
        <mxCell id="I10mN_lkF9MRb2houSes-5" value="Validar que la información requerida sea valida a nivel de tipo de dato, longitud, obligatoriedad, formato y rango." style="rounded=0;whiteSpace=wrap;html=1;" parent="1" vertex="1">
          <mxGeometry x="100" y="280" width="180" height="60" as="geometry" />
        </mxCell>
        <mxCell id="I10mN_lkF9MRb2houSes-9" style="edgeStyle=orthogonalEdgeStyle;rounded=0;orthogonalLoop=1;jettySize=auto;html=1;" parent="1" source="I10mN_lkF9MRb2houSes-6" target="I10mN_lkF9MRb2houSes-11" edge="1">
          <mxGeometry relative="1" as="geometry">
            <mxPoint x="470" y="440" as="targetPoint" />
          </mxGeometry>
        </mxCell>
        <mxCell id="I10mN_lkF9MRb2houSes-13" style="edgeStyle=orthogonalEdgeStyle;rounded=0;orthogonalLoop=1;jettySize=auto;html=1;" parent="1" source="I10mN_lkF9MRb2houSes-6" target="I10mN_lkF9MRb2houSes-12" edge="1">
          <mxGeometry relative="1" as="geometry" />
        </mxCell>
        <mxCell id="I10mN_lkF9MRb2houSes-6" value="" style="rhombus;whiteSpace=wrap;html=1;" parent="1" vertex="1">
          <mxGeometry x="150" y="400" width="80" height="80" as="geometry" />
        </mxCell>
        <mxCell id="I10mN_lkF9MRb2houSes-10" value="[La información requerida no es valida]" style="text;html=1;strokeColor=none;fillColor=none;align=center;verticalAlign=middle;whiteSpace=wrap;rounded=0;" parent="1" vertex="1">
          <mxGeometry x="250" y="410" width="210" height="30" as="geometry" />
        </mxCell>
        <mxCell id="I10mN_lkF9MRb2houSes-60" style="edgeStyle=orthogonalEdgeStyle;rounded=0;orthogonalLoop=1;jettySize=auto;html=1;exitX=1;exitY=0.5;exitDx=0;exitDy=0;" parent="1" source="I10mN_lkF9MRb2houSes-11" target="I10mN_lkF9MRb2houSes-49" edge="1">
          <mxGeometry relative="1" as="geometry">
            <Array as="points">
              <mxPoint x="1020" y="440" />
            </Array>
            <mxPoint x="1110" y="440" as="sourcePoint" />
            <mxPoint x="1020" y="1710" as="targetPoint" />
          </mxGeometry>
        </mxCell>
        <mxCell id="I10mN_lkF9MRb2houSes-11" value="Mostrar un mensaje de error indicando que la información requerida no es valida" style="rounded=0;whiteSpace=wrap;html=1;" parent="1" vertex="1">
          <mxGeometry x="470" y="410" width="180" height="60" as="geometry" />
        </mxCell>
        <mxCell id="rCeDq43KtB1fvTbxr5gH-2" style="edgeStyle=orthogonalEdgeStyle;rounded=0;orthogonalLoop=1;jettySize=auto;html=1;exitX=0.5;exitY=1;exitDx=0;exitDy=0;entryX=0.5;entryY=0;entryDx=0;entryDy=0;" parent="1" source="I10mN_lkF9MRb2houSes-12" target="rCeDq43KtB1fvTbxr5gH-1" edge="1">
          <mxGeometry relative="1" as="geometry" />
        </mxCell>
        <mxCell id="I10mN_lkF9MRb2houSes-12" value="Validar si el servicio que se quiere eliminar existe" style="rounded=0;whiteSpace=wrap;html=1;" parent="1" vertex="1">
          <mxGeometry x="130" y="585" width="120" height="60" as="geometry" />
        </mxCell>
        <mxCell id="I10mN_lkF9MRb2houSes-14" value="[La información requerida es valida]" style="text;html=1;strokeColor=none;fillColor=none;align=center;verticalAlign=middle;whiteSpace=wrap;rounded=0;" parent="1" vertex="1">
          <mxGeometry x="-40" y="510" width="210" height="30" as="geometry" />
        </mxCell>
        <mxCell id="I10mN_lkF9MRb2houSes-18" style="edgeStyle=orthogonalEdgeStyle;rounded=0;orthogonalLoop=1;jettySize=auto;html=1;" parent="1" source="I10mN_lkF9MRb2houSes-15" target="I10mN_lkF9MRb2houSes-17" edge="1">
          <mxGeometry relative="1" as="geometry" />
        </mxCell>
        <mxCell id="I10mN_lkF9MRb2houSes-21" style="edgeStyle=orthogonalEdgeStyle;rounded=0;orthogonalLoop=1;jettySize=auto;html=1;" parent="1" source="I10mN_lkF9MRb2houSes-15" edge="1">
          <mxGeometry relative="1" as="geometry">
            <mxPoint x="190" y="1650" as="targetPoint" />
          </mxGeometry>
        </mxCell>
        <mxCell id="I10mN_lkF9MRb2houSes-15" value="" style="rhombus;whiteSpace=wrap;html=1;" parent="1" vertex="1">
          <mxGeometry x="150" y="1460" width="80" height="80" as="geometry" />
        </mxCell>
        <mxCell id="I10mN_lkF9MRb2houSes-17" value="Mostrar un mensaje de error indicando que el servicio que se desea eliminar tiene una reserva activa" style="rounded=0;whiteSpace=wrap;html=1;" parent="1" vertex="1">
          <mxGeometry x="480" y="1470" width="180" height="60" as="geometry" />
        </mxCell>
        <mxCell id="I10mN_lkF9MRb2houSes-19" value="[si el servicio esta asociada a una reserva]" style="text;html=1;strokeColor=none;fillColor=none;align=center;verticalAlign=middle;whiteSpace=wrap;rounded=0;" parent="1" vertex="1">
          <mxGeometry x="257.5" y="1470" width="210" height="30" as="geometry" />
        </mxCell>
        <mxCell id="I10mN_lkF9MRb2houSes-22" value="[si el servicio no esta asociada a una reserva]" style="text;html=1;strokeColor=none;fillColor=none;align=center;verticalAlign=middle;whiteSpace=wrap;rounded=0;" parent="1" vertex="1">
          <mxGeometry x="20" y="1560" width="210" height="30" as="geometry" />
        </mxCell>
        <mxCell id="I10mN_lkF9MRb2houSes-47" value="Mostrar mensaje de exito indicando que el servicio se elimino exitosamente" style="rounded=0;whiteSpace=wrap;html=1;" parent="1" vertex="1">
          <mxGeometry x="130" y="1650" width="120" height="80" as="geometry" />
        </mxCell>
        <mxCell id="uY2GZrnFG4u4bRt9zj5L-2" style="edgeStyle=orthogonalEdgeStyle;rounded=0;orthogonalLoop=1;jettySize=auto;html=1;exitX=0.5;exitY=1;exitDx=0;exitDy=0;" parent="1" source="I10mN_lkF9MRb2houSes-49" target="I10mN_lkF9MRb2houSes-50" edge="1">
          <mxGeometry relative="1" as="geometry" />
        </mxCell>
        <mxCell id="I10mN_lkF9MRb2houSes-49" value="" style="rounded=0;whiteSpace=wrap;html=1;fillColor=#000000;" parent="1" vertex="1">
          <mxGeometry x="-50" y="1790" width="1200" height="30" as="geometry" />
        </mxCell>
        <mxCell id="I10mN_lkF9MRb2houSes-50" value="" style="ellipse;whiteSpace=wrap;html=1;aspect=fixed;" parent="1" vertex="1">
          <mxGeometry x="510" y="1920" width="80" height="80" as="geometry" />
        </mxCell>
        <mxCell id="I10mN_lkF9MRb2houSes-52" value="" style="ellipse;whiteSpace=wrap;html=1;aspect=fixed;fillColor=#000000;" parent="1" vertex="1">
          <mxGeometry x="530" y="1940" width="40" height="40" as="geometry" />
        </mxCell>
        <mxCell id="I10mN_lkF9MRb2houSes-53" value="Fin de Eliminar Servicio" style="text;html=1;align=center;verticalAlign=middle;resizable=0;points=[];autosize=1;strokeColor=none;fillColor=none;" parent="1" vertex="1">
          <mxGeometry x="475" y="1850" width="150" height="30" as="geometry" />
        </mxCell>
        <mxCell id="uY2GZrnFG4u4bRt9zj5L-1" style="edgeStyle=orthogonalEdgeStyle;rounded=0;orthogonalLoop=1;jettySize=auto;html=1;exitX=0.5;exitY=1;exitDx=0;exitDy=0;entryX=0.2;entryY=0;entryDx=0;entryDy=0;entryPerimeter=0;" parent="1" source="I10mN_lkF9MRb2houSes-47" target="I10mN_lkF9MRb2houSes-49" edge="1">
          <mxGeometry relative="1" as="geometry" />
        </mxCell>
        <mxCell id="rCeDq43KtB1fvTbxr5gH-4" style="edgeStyle=orthogonalEdgeStyle;rounded=0;orthogonalLoop=1;jettySize=auto;html=1;exitX=1;exitY=0.5;exitDx=0;exitDy=0;entryX=0;entryY=0.5;entryDx=0;entryDy=0;" parent="1" source="rCeDq43KtB1fvTbxr5gH-1" target="rCeDq43KtB1fvTbxr5gH-3" edge="1">
          <mxGeometry relative="1" as="geometry" />
        </mxCell>
        <mxCell id="rCeDq43KtB1fvTbxr5gH-7" style="edgeStyle=orthogonalEdgeStyle;rounded=0;orthogonalLoop=1;jettySize=auto;html=1;exitX=0.5;exitY=1;exitDx=0;exitDy=0;" parent="1" source="rCeDq43KtB1fvTbxr5gH-1" target="rCeDq43KtB1fvTbxr5gH-6" edge="1">
          <mxGeometry relative="1" as="geometry" />
        </mxCell>
        <mxCell id="rCeDq43KtB1fvTbxr5gH-1" value="" style="rhombus;whiteSpace=wrap;html=1;" parent="1" vertex="1">
          <mxGeometry x="150" y="710" width="80" height="80" as="geometry" />
        </mxCell>
        <mxCell id="rCeDq43KtB1fvTbxr5gH-3" value="Mostrar un mensaje de error indicando que el servicio que se desea eliminar no existe" style="rounded=0;whiteSpace=wrap;html=1;" parent="1" vertex="1">
          <mxGeometry x="470" y="720" width="180" height="60" as="geometry" />
        </mxCell>
        <mxCell id="rCeDq43KtB1fvTbxr5gH-5" value="[si el servicio no existe]" style="text;html=1;strokeColor=none;fillColor=none;align=center;verticalAlign=middle;whiteSpace=wrap;rounded=0;" parent="1" vertex="1">
          <mxGeometry x="240" y="720" width="210" height="30" as="geometry" />
        </mxCell>
        <mxCell id="rCeDq43KtB1fvTbxr5gH-15" style="edgeStyle=orthogonalEdgeStyle;rounded=0;orthogonalLoop=1;jettySize=auto;html=1;exitX=0.5;exitY=1;exitDx=0;exitDy=0;entryX=0.5;entryY=0;entryDx=0;entryDy=0;" parent="1" source="rCeDq43KtB1fvTbxr5gH-6" target="rCeDq43KtB1fvTbxr5gH-10" edge="1">
          <mxGeometry relative="1" as="geometry" />
        </mxCell>
        <mxCell id="rCeDq43KtB1fvTbxr5gH-6" value="Validar si el servicio que se quiere eliminar este escrito correctamente" style="rounded=0;whiteSpace=wrap;html=1;" parent="1" vertex="1">
          <mxGeometry x="130" y="900" width="120" height="80" as="geometry" />
        </mxCell>
        <mxCell id="rCeDq43KtB1fvTbxr5gH-8" value="[Si el servicio existe]" style="text;html=1;strokeColor=none;fillColor=none;align=center;verticalAlign=middle;whiteSpace=wrap;rounded=0;" parent="1" vertex="1">
          <mxGeometry x="10" y="830" width="210" height="30" as="geometry" />
        </mxCell>
        <mxCell id="rCeDq43KtB1fvTbxr5gH-9" style="edgeStyle=orthogonalEdgeStyle;rounded=0;orthogonalLoop=1;jettySize=auto;html=1;exitX=0.5;exitY=1;exitDx=0;exitDy=0;" parent="1" source="rCeDq43KtB1fvTbxr5gH-10" target="rCeDq43KtB1fvTbxr5gH-29" edge="1">
          <mxGeometry relative="1" as="geometry">
            <mxPoint x="190" y="1270" as="targetPoint" />
          </mxGeometry>
        </mxCell>
        <mxCell id="rCeDq43KtB1fvTbxr5gH-16" style="edgeStyle=orthogonalEdgeStyle;rounded=0;orthogonalLoop=1;jettySize=auto;html=1;exitX=1;exitY=0.5;exitDx=0;exitDy=0;entryX=0;entryY=0.5;entryDx=0;entryDy=0;" parent="1" source="rCeDq43KtB1fvTbxr5gH-10" target="rCeDq43KtB1fvTbxr5gH-11" edge="1">
          <mxGeometry relative="1" as="geometry" />
        </mxCell>
        <mxCell id="rCeDq43KtB1fvTbxr5gH-10" value="" style="rhombus;whiteSpace=wrap;html=1;" parent="1" vertex="1">
          <mxGeometry x="150" y="1080" width="80" height="80" as="geometry" />
        </mxCell>
        <mxCell id="rCeDq43KtB1fvTbxr5gH-11" value="Mostrar un mensaje de error indicando que el servicio que se desea eliminar no esta escrito correctamente" style="rounded=0;whiteSpace=wrap;html=1;" parent="1" vertex="1">
          <mxGeometry x="470" y="1090" width="180" height="60" as="geometry" />
        </mxCell>
        <mxCell id="rCeDq43KtB1fvTbxr5gH-12" value="[La información ingresada no esta correcta]" style="text;html=1;strokeColor=none;fillColor=none;align=center;verticalAlign=middle;whiteSpace=wrap;rounded=0;" parent="1" vertex="1">
          <mxGeometry x="240" y="1090" width="210" height="30" as="geometry" />
        </mxCell>
        <mxCell id="rCeDq43KtB1fvTbxr5gH-14" value="[La información ingresada esta correcta]" style="text;html=1;strokeColor=none;fillColor=none;align=center;verticalAlign=middle;whiteSpace=wrap;rounded=0;" parent="1" vertex="1">
          <mxGeometry x="-40" y="1200" width="210" height="30" as="geometry" />
        </mxCell>
        <mxCell id="rCeDq43KtB1fvTbxr5gH-32" style="edgeStyle=orthogonalEdgeStyle;rounded=0;orthogonalLoop=1;jettySize=auto;html=1;exitX=0.5;exitY=1;exitDx=0;exitDy=0;entryX=0.5;entryY=0;entryDx=0;entryDy=0;" parent="1" source="rCeDq43KtB1fvTbxr5gH-29" target="I10mN_lkF9MRb2houSes-15" edge="1">
          <mxGeometry relative="1" as="geometry" />
        </mxCell>
        <mxCell id="rCeDq43KtB1fvTbxr5gH-29" value="Validar si lel servicio que se quiere eliminar no este asociada a una reserva" style="rounded=0;whiteSpace=wrap;html=1;" parent="1" vertex="1">
          <mxGeometry x="130" y="1290" width="120" height="80" as="geometry" />
        </mxCell>
        <mxCell id="72iiLQkYhRaqvz-QGN7f-1" style="edgeStyle=orthogonalEdgeStyle;rounded=0;orthogonalLoop=1;jettySize=auto;html=1;exitX=1;exitY=0.5;exitDx=0;exitDy=0;entryX=0.851;entryY=0.167;entryDx=0;entryDy=0;entryPerimeter=0;" edge="1" parent="1" source="rCeDq43KtB1fvTbxr5gH-3" target="I10mN_lkF9MRb2houSes-49">
          <mxGeometry relative="1" as="geometry">
            <Array as="points">
              <mxPoint x="970" y="750" />
              <mxPoint x="970" y="1285" />
              <mxPoint x="971" y="1285" />
            </Array>
          </mxGeometry>
        </mxCell>
        <mxCell id="72iiLQkYhRaqvz-QGN7f-2" style="edgeStyle=orthogonalEdgeStyle;rounded=0;orthogonalLoop=1;jettySize=auto;html=1;exitX=1;exitY=0.5;exitDx=0;exitDy=0;entryX=0.818;entryY=-0.1;entryDx=0;entryDy=0;entryPerimeter=0;" edge="1" parent="1" source="rCeDq43KtB1fvTbxr5gH-11" target="I10mN_lkF9MRb2houSes-49">
          <mxGeometry relative="1" as="geometry">
            <Array as="points">
              <mxPoint x="930" y="1120" />
              <mxPoint x="930" y="1470" />
              <mxPoint x="932" y="1470" />
            </Array>
          </mxGeometry>
        </mxCell>
        <mxCell id="72iiLQkYhRaqvz-QGN7f-3" style="edgeStyle=orthogonalEdgeStyle;rounded=0;orthogonalLoop=1;jettySize=auto;html=1;exitX=1;exitY=0.5;exitDx=0;exitDy=0;entryX=0.782;entryY=-0.1;entryDx=0;entryDy=0;entryPerimeter=0;" edge="1" parent="1" source="I10mN_lkF9MRb2houSes-17" target="I10mN_lkF9MRb2houSes-49">
          <mxGeometry relative="1" as="geometry">
            <Array as="points">
              <mxPoint x="888" y="1500" />
            </Array>
          </mxGeometry>
        </mxCell>
      </root>
    </mxGraphModel>
  </diagram>
</mxfile>
